<?xml version="1.0" standalone="no"?>
<!DOCTYPE svg PUBLIC "-//W3C//DTD SVG 20010904//EN"
 "http://www.w3.org/TR/2001/REC-SVG-20010904/DTD/svg10.dtd">
<svg version="1.0" xmlns="http://www.w3.org/2000/svg"
 width="1024.000000pt" height="1024.000000pt" viewBox="0 0 1024.000000 1024.000000"
 preserveAspectRatio="xMidYMid meet">

<g transform="translate(0.000000,1024.000000) scale(0.100000,-0.100000)"
fill="#000000" stroke="none">
<path d="M4830 8844 c-730 -88 -1372 -437 -1815 -987 -298 -369 -483 -789
-561 -1274 -21 -133 -30 -528 -15 -674 43 -419 151 -746 366 -1107 339 -573
939 -1032 1572 -1206 262 -72 446 -96 734 -96 676 0 1282 227 1779 666 436
385 734 893 855 1459 43 204 50 279 50 550 0 278 -9 369 -61 605 -106 479
-365 945 -719 1294 -410 404 -931 662 -1515 751 -101 16 -584 29 -670 19z
m622 -204 c785 -109 1455 -559 1846 -1240 170 -296 269 -610 307 -974 104
-992 -404 -1954 -1287 -2436 -43 -23 -78 -38 -78 -34 0 4 53 62 118 128 265
270 417 538 483 851 30 140 32 365 5 493 -34 162 -115 360 -155 382 -52 27
-121 -8 -121 -62 0 -17 16 -70 35 -119 59 -145 76 -229 82 -384 4 -103 1 -166
-11 -240 -41 -249 -173 -508 -361 -711 l-64 -69 -1 640 0 640 82 115 c159 224
336 477 433 620 54 80 100 147 102 149 1 2 29 -16 60 -41 119 -93 153 -105
198 -65 l26 22 14 325 c8 179 16 378 17 443 l3 119 -29 25 c-42 36 -71 30
-411 -80 -159 -52 -329 -107 -377 -121 -106 -33 -128 -49 -135 -102 -6 -49 14
-76 117 -155 41 -31 68 -59 66 -66 -3 -7 -52 -79 -109 -160 -57 -82 -121 -174
-143 -207 l-38 -58 -46 6 c-115 16 -194 67 -235 151 -10 23 -28 108 -41 196
-28 199 -39 252 -76 369 -60 191 -172 367 -314 499 l-76 69 32 47 c48 70 89
167 102 243 30 175 -62 367 -207 436 -83 40 -224 37 -308 -5 -39 -21 -42 -21
-52 -4 -34 61 -96 122 -155 154 -63 35 -68 36 -170 36 -99 0 -109 -2 -174 -34
-82 -40 -161 -117 -198 -191 -20 -42 -58 -181 -58 -213 0 -3 -33 -7 -74 -9
-134 -9 -221 -86 -246 -219 -20 -102 26 -258 99 -342 l32 -36 -63 -74 c-77
-91 -123 -166 -150 -245 -16 -49 -25 -62 -47 -67 -44 -11 -267 -121 -357 -176
-47 -29 -105 -70 -129 -91 -40 -35 -45 -44 -45 -82 0 -33 6 -47 28 -67 54 -50
184 -121 307 -169 33 -13 62 -25 64 -27 3 -2 -30 -38 -72 -81 -170 -172 -236
-301 -237 -463 0 -90 22 -157 70 -212 22 -25 40 -50 40 -56 0 -6 -11 -43 -24
-83 -44 -138 -60 -250 -60 -438 0 -202 16 -307 70 -470 37 -110 122 -281 181
-363 19 -27 32 -51 30 -54 -3 -2 -88 78 -189 179 -197 195 -309 334 -419 519
-219 366 -330 747 -346 1184 -34 952 454 1813 1292 2277 468 260 994 354 1547
278z m-854 -347 c-10 -2 -28 -2 -40 0 -13 2 -5 4 17 4 22 1 32 -1 23 -4z m-79
-6 c-16 -12 -79 -45 -79 -42 0 7 63 45 74 45 5 0 7 -1 5 -3z m172 -34 c37 -34
70 -81 69 -100 -1 -4 -8 6 -17 22 -21 40 -52 74 -88 96 -16 11 -24 19 -18 19
7 0 31 -17 54 -37z m-287 -60 c-32 -47 -40 -55 -24 -23 12 24 40 60 46 60 2 0
-8 -17 -22 -37z m729 -60 c-7 -2 -19 -2 -25 0 -7 3 -2 5 12 5 14 0 19 -2 13
-5z m-94 -15 c-2 -2 -17 -14 -34 -28 l-30 -25 24 28 c14 15 29 27 34 27 6 0 8
-1 6 -2z m201 -33 c13 -14 21 -25 18 -25 -2 0 -15 11 -28 25 -13 14 -21 25
-18 25 2 0 15 -11 28 -25z m-893 -107 c-3 -8 -6 -5 -6 6 -1 11 2 17 5 13 3 -3
4 -12 1 -19z m0 -80 c-2 -13 -4 -3 -4 22 0 25 2 35 4 23 2 -13 2 -33 0 -45z
m950 0 c-3 -8 -6 -5 -6 6 -1 11 2 17 5 13 3 -3 4 -12 1 -19z m-10 -60 c-3 -8
-6 -5 -6 6 -1 11 2 17 5 13 3 -3 4 -12 1 -19z m-957 -12 c0 -2 -8 -10 -17 -17
-16 -13 -17 -12 -4 4 13 16 21 21 21 13z m-307 -41 c-3 -9 -8 -14 -10 -11 -3
3 -2 9 2 15 9 16 15 13 8 -4z m-16 -57 c-3 -7 -5 -2 -5 12 0 14 2 19 5 13 2
-7 2 -19 0 -25z m751 25 c-10 -2 -28 -2 -40 0 -13 2 -5 4 17 4 22 1 32 -1 23
-4z m450 -88 c-6 -14 -13 -23 -15 -21 -5 5 15 46 22 46 3 0 -1 -11 -7 -25z
m-919 -19 c-2 -2 -15 -9 -29 -15 -24 -11 -24 -11 -6 3 16 13 49 24 35 12z
m-59 -30 c0 -2 -7 -7 -16 -10 -8 -3 -12 -2 -9 4 6 10 25 14 25 6z m-45 -26
c-3 -5 -12 -10 -18 -10 -7 0 -6 4 3 10 19 12 23 12 15 0z m-81 -49 c-2 -3 -12
3 -22 13 -16 17 -16 18 5 5 12 -7 20 -15 17 -18z m772 18 c186 -32 344 -118
475 -256 150 -158 223 -336 269 -653 34 -238 69 -326 162 -417 56 -55 164
-113 210 -113 25 0 18 -12 -109 -182 -75 -101 -139 -187 -143 -191 -5 -5 -61
33 -126 85 -202 160 -378 294 -401 306 -31 17 -74 15 -105 -6 -15 -9 -55 -51
-89 -92 -34 -41 -85 -102 -114 -135 -438 -509 -716 -834 -742 -867 -34 -42
-42 -83 -23 -117 13 -25 64 -45 99 -38 22 5 34 0 56 -24 50 -52 145 -121 145
-106 0 19 66 101 355 437 201 234 360 415 375 427 8 7 29 13 47 13 26 0 64
-26 220 -153 103 -84 224 -180 268 -215 l80 -63 22 28 c160 200 259 330 334
438 228 327 323 466 467 680 166 248 187 275 211 274 11 0 9 -3 -6 -9 -12 -5
-66 -75 -120 -156 -99 -148 -367 -539 -520 -759 -99 -142 -375 -503 -385 -504
-6 -1 -132 98 -452 357 -128 103 -127 103 -258 -45 -116 -132 -497 -575 -571
-664 -26 -32 -52 -70 -57 -84 -9 -24 -6 -31 24 -61 47 -47 86 -46 135 4 20 20
163 186 319 369 155 183 287 335 292 338 6 4 91 -60 190 -140 l180 -147 0
-699 c0 -583 -2 -699 -14 -699 -7 0 -34 -3 -60 -6 l-46 -7 0 616 0 617 -29 32
-29 33 -169 3 c-104 2 -182 -1 -205 -8 -70 -20 -68 4 -68 -692 l0 -623 -67 5
-68 5 -5 433 -5 434 -28 24 c-28 24 -29 24 -263 24 -247 0 -269 -4 -291 -48
-4 -9 -10 -171 -13 -359 l-5 -342 -90 55 c-329 203 -544 488 -637 844 -25 98
-30 140 -35 280 -5 179 6 285 49 435 l23 80 70 5 c91 8 149 36 214 105 135
142 164 361 90 673 -20 84 -21 93 -6 110 62 68 68 258 16 471 l-22 89 32 68
c85 182 242 329 441 415 72 31 134 49 245 72 41 9 203 7 261 -4z m2134 -559
c0 -22 -2 -40 -4 -40 -2 0 -6 18 -8 40 -2 22 0 40 4 40 5 0 8 -18 8 -40z
m-253 -47 l-228 -75 66 -49 c36 -27 65 -52 65 -55 0 -2 -34 21 -75 52 l-76 57
223 72 c123 40 230 73 238 73 8 0 -88 -34 -213 -75z m240 -185 c-2 -29 -3 -6
-3 52 0 58 1 81 3 53 2 -29 2 -77 0 -105z m-3228 39 c12 -71 14 -177 5 -227
-7 -32 -7 -32 -52 -25 -83 12 -322 111 -322 133 0 8 7 12 110 76 70 43 205
104 231 105 13 1 20 -14 28 -62z m2901 -62 c0 -28 -311 -472 -660 -940 -186
-250 -226 -295 -261 -295 -19 0 -118 73 -414 303 -82 65 -152 117 -156 117 -7
0 -518 -588 -739 -850 -124 -148 -188 -217 -133 -145 44 57 715 839 840 979
l35 38 31 -29 c86 -80 516 -403 536 -403 9 0 26 7 38 15 53 37 838 1120 866
1195 13 33 17 37 17 15z m320 -135 l0 -90 -59 45 c-33 25 -65 45 -73 46 -10 0
-10 2 0 6 6 2 34 -11 61 -31 27 -20 51 -36 55 -36 3 0 6 34 6 75 0 41 2 75 5
75 3 0 5 -40 5 -90z m-3275 -299 c-3 -5 -24 -24 -48 -41 l-42 -32 45 41 c46
41 56 48 45 32z m32 -33 c-3 -8 -6 -5 -6 6 -1 11 2 17 5 13 3 -3 4 -12 1 -19z
m10 -80 c-3 -7 -5 -2 -5 12 0 14 2 19 5 13 2 -7 2 -19 0 -25z m-178 -28 c-23
-27 -44 -50 -47 -50 -5 0 14 25 57 73 42 46 35 30 -10 -23z m188 -167 c-2 -32
-3 -6 -3 57 0 63 1 89 3 58 2 -32 2 -84 0 -115z m-247 87 c-6 -11 -13 -20 -16
-20 -2 0 0 9 6 20 6 11 13 20 16 20 2 0 0 -9 -6 -20z m-32 -55 c-6 -14 -13
-23 -15 -21 -5 5 15 46 22 46 3 0 -1 -11 -7 -25z m-41 -107 c-3 -8 -6 -5 -6 6
-1 11 2 17 5 13 3 -3 4 -12 1 -19z m-10 -75 c-3 -10 -5 -2 -5 17 0 19 2 27 5
18 2 -10 2 -26 0 -35z m269 -54 c-16 -24 -65 -59 -81 -59 -5 0 4 8 20 19 17
10 39 28 49 40 25 27 31 27 12 0z m-205 -46 c13 -17 13 -17 -6 -3 -11 8 -22
16 -24 17 -2 2 0 3 6 3 6 0 17 -8 24 -17z m46 -19 c-3 -3 -12 -4 -19 -1 -8 3
-5 6 6 6 11 1 17 -2 13 -5z m2533 -1160 l0 -695 -56 -26 c-30 -14 -57 -23 -60
-20 -3 2 20 14 51 27 l55 22 0 681 c0 383 -4 677 -9 672 -4 -6 -41 -53 -81
-105 -73 -95 -139 -170 -150 -170 -3 0 15 22 40 49 25 26 81 96 125 154 44 59
81 107 83 107 1 0 2 -313 2 -696z m-288 388 c-10 -7 -12 -131 -10 -600 2 -326
0 -592 -4 -592 -5 0 -8 270 -8 600 0 565 1 600 18 600 12 0 14 -3 4 -8z m-582
-136 c0 -2 -16 -6 -35 -8 -19 -2 -35 0 -35 4 0 4 16 8 35 8 19 0 35 -2 35 -4z
m90 -571 l0 -565 -72 2 -73 2 68 3 67 4 -2 559 c-2 308 0 560 5 560 4 0 7
-254 7 -565z m-153 -298 c-1 -155 -2 -28 -2 283 0 311 1 438 2 282 2 -155 2
-409 0 -565z m-732 153 c0 -181 -3 -330 -7 -330 -5 0 -8 149 -8 330 0 182 3
330 8 330 4 0 7 -148 7 -330z m178 313 c-29 -2 -78 -2 -110 0 -32 2 -8 3 52 3
61 0 87 -1 58 -3z m64 -506 c-1 -89 -3 -13 -3 168 0 182 2 254 3 162 2 -93 2
-241 0 -330z m1293 -91 c0 -5 -135 -46 -147 -45 -8 1 125 48 140 48 4 1 7 -1
7 -3z m-1390 -76 c63 -15 109 -29 101 -29 -19 -1 -231 49 -231 55 0 6 8 5 130
-26z"/>
<path d="M4315 7076 c-96 -42 -124 -171 -54 -251 105 -119 295 -17 259 139
-22 99 -117 151 -205 112z"/>
<path d="M2693 3206 c-232 -76 -346 -335 -263 -596 36 -115 112 -196 229 -242
46 -18 75 -22 161 -22 128 1 194 23 268 89 47 42 92 116 92 150 0 9 -29 23
-85 41 -47 15 -87 25 -88 23 -2 -2 -15 -22 -29 -45 -15 -23 -43 -49 -65 -60
-47 -23 -135 -24 -179 -1 -81 42 -129 146 -122 266 5 87 38 155 97 196 38 27
51 30 116 30 82 0 113 -15 150 -73 24 -37 41 -39 122 -11 80 27 86 35 64 85
-28 62 -78 112 -145 146 -55 29 -71 32 -171 35 -74 2 -124 -2 -152 -11z"/>
<path d="M4823 3205 c-185 -57 -292 -231 -281 -455 8 -152 64 -260 170 -333
84 -57 129 -70 248 -70 126 -1 192 21 264 85 48 41 101 130 93 152 -5 12 -139
66 -162 66 -6 0 -19 -16 -30 -36 -31 -58 -87 -89 -159 -89 -141 1 -215 90
-215 260 -1 156 78 255 205 255 63 0 105 -21 148 -73 l37 -45 79 27 c44 15 83
30 86 34 11 10 -4 50 -36 99 -37 55 -109 104 -182 124 -66 17 -209 17 -265 -1z"/>
<path d="M3305 3198 c-3 -7 -4 -198 -3 -423 l3 -410 95 0 95 0 3 173 2 172
160 0 160 0 2 -172 3 -173 90 0 90 0 3 423 2 422 -95 0 -95 0 -2 -162 -3 -163
-155 0 -155 0 -5 160 -5 160 -93 3 c-68 2 -94 -1 -97 -10z"/>
<path d="M4205 3197 c-3 -6 -4 -197 -3 -422 l3 -410 85 -3 c71 -2 87 0 97 14
10 14 13 109 13 410 0 216 -3 399 -6 408 -5 13 -23 16 -95 16 -63 0 -91 -4
-94 -13z"/>
<path d="M5472 2788 l3 -423 84 -3 c61 -2 87 1 92 10 5 7 9 65 9 128 l0 115
46 48 c26 27 50 45 54 40 6 -7 110 -183 174 -295 l27 -48 109 0 c84 0 110 3
110 13 0 7 -61 114 -136 237 -75 124 -139 230 -141 237 -3 6 54 85 126 175 72
89 131 169 131 175 0 10 -29 13 -114 13 l-114 0 -69 -87 c-38 -49 -98 -126
-134 -172 l-64 -84 -3 171 -2 172 -95 0 -95 0 2 -422z"/>
<path d="M6295 3197 c-3 -6 -4 -197 -3 -422 l3 -410 285 0 285 0 3 83 3 82
-93 2 c-115 1 -269 5 -285 7 -9 1 -13 24 -13 81 l0 80 159 0 c88 0 166 3 175
6 13 5 16 23 16 90 l0 84 -175 0 -175 0 0 75 0 75 193 2 192 3 3 88 3 87 -286
0 c-219 0 -287 -3 -290 -13z"/>
<path d="M7027 3203 c-9 -8 -9 -806 -1 -827 5 -13 23 -16 95 -16 84 0 89 1 94
23 3 12 5 127 3 255 -2 128 -1 232 2 232 3 0 73 -102 155 -227 204 -308 179
-283 281 -283 75 0 84 2 95 21 8 16 10 130 8 403 -2 209 -5 391 -8 404 -3 22
-6 23 -95 20 l-91 -3 -3 -253 -2 -253 -156 233 c-86 128 -165 243 -177 256
-18 20 -30 22 -107 22 -48 0 -90 -3 -93 -7z"/>
<path d="M3283 2132 c-119 -43 -183 -127 -183 -244 0 -85 45 -159 120 -198 19
-10 80 -32 135 -49 113 -35 161 -61 176 -94 36 -80 -108 -140 -210 -87 -35 18
-71 68 -71 100 0 14 -48 7 -125 -18 -48 -16 -50 -18 -47 -52 9 -82 80 -163
178 -200 75 -28 195 -31 276 -7 150 45 230 184 187 328 -26 85 -101 138 -257
180 -126 35 -172 64 -172 110 0 73 133 109 200 53 17 -15 37 -42 45 -60 16
-39 16 -39 110 -14 70 18 70 18 67 51 -7 78 -72 159 -159 196 -59 25 -206 28
-270 5z"/>
<path d="M4804 2132 c-77 -23 -121 -50 -174 -108 -89 -97 -133 -258 -110 -408
28 -188 163 -322 347 -345 259 -32 457 112 495 362 31 206 -56 389 -228 473
-67 34 -83 37 -172 40 -72 3 -112 -1 -158 -14z m258 -198 c28 -20 53 -49 73
-89 26 -50 30 -69 29 -134 0 -91 -23 -150 -78 -201 -83 -79 -207 -80 -290 -2
-94 88 -103 275 -20 388 59 80 200 99 286 38z"/>
<path d="M5785 2136 c-27 -7 -74 -25 -103 -41 -232 -126 -274 -521 -76 -718
186 -184 544 -130 639 98 9 21 13 41 8 46 -8 8 -149 59 -164 59 -4 0 -19 -20
-33 -44 -46 -79 -152 -108 -241 -67 -81 37 -127 121 -128 235 -1 123 47 218
130 252 43 18 127 18 163 -1 30 -16 80 -74 80 -93 0 -17 28 -15 101 9 89 30
92 34 68 89 -66 148 -254 222 -444 176z"/>
<path d="M3814 2127 c-3 -8 -4 -49 -2 -93 l3 -79 113 -3 112 -3 0 -322 c0
-238 3 -326 12 -335 12 -12 143 -17 172 -6 14 5 16 44 16 335 l0 329 109 0
c90 0 110 3 115 16 11 28 6 150 -6 162 -18 18 -637 17 -644 -1z"/>
<path d="M6391 2121 c-7 -13 -11 -158 -11 -420 0 -464 -11 -424 118 -419 l77
3 3 126 3 126 48 54 48 54 22 -43 c43 -84 174 -307 185 -314 16 -11 188 -9
205 1 15 9 -10 54 -206 380 -35 57 -63 109 -63 116 0 7 6 18 14 24 8 7 67 77
131 157 75 91 115 149 111 159 -4 12 -26 15 -111 15 -126 0 -103 17 -265 -194
l-115 -149 -5 169 -5 169 -87 3 c-78 2 -88 1 -97 -17z"/>
</g>
</svg>
